Coordinates
version=1
nRows=16
nColumns=63
inDegrees=yes

Units are S.I. units (second, meters, Newtons, ...)
If the header above contains a line with 'inDegrees', this indicates whether rotational values are in degrees (yes) or radians (no).

endheader
time	pelvis_tilt	pelvis_list	pelvis_rotation	pelvis_tx	pelvis_ty	pelvis_tz	hip_flexion_r	hip_adduction_r	hip_rotation_r	knee_angle_r	knee_angle_r_beta	ankle_angle_r	subtalar_angle_r	mtp_angle_r	hip_flexion_l	hip_adduction_l	hip_rotation_l	knee_angle_l	knee_angle_l_beta	ankle_angle_l	subtalar_angle_l	mtp_angle_l	L5_S1_Flex_Ext	L5_S1_Lat_Bending	L5_S1_axial_rotation	L4_L5_Flex_Ext	L4_L5_Lat_Bending	L4_L5_axial_rotation	L3_L4_Flex_Ext	L3_L4_Lat_Bending	L3_L4_axial_rotation	L2_L3_Flex_Ext	L2_L3_Lat_Bending	L2_L3_axial_rotation	L1_L2_Flex_Ext	L1_L2_Lat_Bending	L1_L2_axial_rotation	L1_T12_Flex_Ext	L1_T12_Lat_Bending	L1_T12_axial_rotation	Abs_r3	Abs_r2	Abs_r1	Abs_t1	Abs_t2	neck_flexion	neck_bending	neck_rotation	arm_flex_r	arm_add_r	arm_rot_r	elbow_flex_r	pro_sup_r	wrist_flex_r	wrist_dev_r	arm_flex_l	arm_add_l	arm_rot_l	elbow_flex_l	pro_sup_l	wrist_flex_l	wrist_dev_l
0.000000	-3.088341	-2.666373	92.350173	0.273610	0.716937	0.817624	-5.020603	2.513269	6.345221	0.857981	0.014975	15.114839	-17.008932	0.000000	-5.123846	-1.663618	14.656695	0.603104	0.010526	24.976664	-11.885041	0.000000	0.198898	0.591398	-0.464764	0.369374	0.786560	-0.493812	0.326770	1.437926	-0.493812	0.227321	1.437926	-0.406668	0.184697	1.205980	-0.377621	0.113651	0.916076	-0.348573	1.420712	6.690016	-2.584878	0.000000	0.000000	8.890253	1.614910	9.123966	23.874181	-11.751746	87.395471	47.918459	4.243333	-2.839824	21.936661	15.750656	-1.236918	69.280067	33.577109	43.962006	10.086889	-3.619225
0.020000	-3.094360	-2.845772	92.711408	0.273483	0.716833	0.819105	-4.959193	2.615588	4.395697	0.844266	0.014735	14.249429	-16.153866	0.000000	-4.938375	-1.714250	15.905343	0.547502	0.009556	24.278157	-12.657775	0.000000	0.186013	0.582252	-0.530412	0.345445	0.774395	-0.563562	0.305601	1.415688	-0.563562	0.212594	1.415688	-0.464110	0.172732	1.187329	-0.430959	0.106288	0.901909	-0.397809	1.328673	6.586552	-2.949991	0.000000	0.000000	9.297606	1.393355	9.003809	22.977716	-11.671231	84.733884	48.025569	4.630419	-3.627045	22.254562	16.074459	-1.393592	69.398122	33.790775	43.068219	9.532317	-4.369380
0.040000	-3.113313	-2.996484	93.032761	0.273385	0.716699	0.820395	-4.905585	2.685588	2.853901	0.824605	0.014392	13.579059	-15.511128	0.000000	-4.772786	-1.743022	16.956869	0.510936	0.008918	23.737078	-13.287943	0.000000	0.177456	0.572126	-0.586612	0.329553	0.760928	-0.623275	0.291542	1.391068	-0.623275	0.202814	1.391068	-0.513286	0.164785	1.166680	-0.476622	0.101398	0.886224	-0.439959	1.267549	6.472007	-3.262560	0.000000	0.000000	9.655208	1.256986	8.804746	22.329479	-11.602880	82.758598	48.117131	4.895391	-4.186547	22.444249	16.294593	-1.506282	69.252757	33.981589	42.401669	9.096131	-4.760106
0.060000	-3.143466	-3.120278	93.315954	0.273315	0.716539	0.821505	-4.859804	2.726798	1.680115	0.800045	0.013963	13.083620	-15.059021	0.000000	-4.626417	-1.752267	17.826547	0.492188	0.008590	23.337017	-13.788708	0.000000	0.172781	0.561265	-0.634033	0.320871	0.746482	-0.673660	0.283861	1.364659	-0.673660	0.197471	1.364659	-0.554779	0.160444	1.144531	-0.515152	0.098727	0.869399	-0.475525	1.234154	6.349137	-3.526301	0.000000	0.000000	9.965948	1.196099	8.540370	21.900767	-11.545369	81.393143	48.194210	5.052394	-4.545750	22.523102	16.422308	-1.579704	68.881764	34.149062	41.944864	8.766380	-4.841512
0.080000	-3.183087	-3.218923	93.562707	0.273271	0.716360	0.822448	-4.821876	2.742745	0.834621	0.771634	0.013468	12.743003	-14.775848	0.000000	-4.498605	-1.744316	18.529650	0.490038	0.008553	23.061563	-14.173235	0.000000	0.171541	0.549911	-0.673342	0.318569	0.731381	-0.715426	0.281825	1.337053	-0.715426	0.196054	1.337053	-0.589175	0.159293	1.121378	-0.547091	0.098018	0.851812	-0.505007	1.225299	6.220699	-3.744928	0.000000	0.000000	10.232718	1.200990	8.224276	21.662877	-11.497372	80.561048	48.257869	5.115576	-4.732073	22.508504	16.468853	-1.618570	68.322933	34.292706	41.680308	8.531113	-4.663708
0.100000	-3.230444	-3.294188	93.774741	0.273253	0.716168	0.823235	-4.791825	2.736959	0.277702	0.740421	0.012923	12.537100	-14.639912	0.000000	-4.388689	-1.721503	19.081453	0.503267	0.008784	22.894306	-14.454689	0.000000	0.173291	0.538308	-0.705208	0.321818	0.715950	-0.749284	0.284699	1.308843	-0.749284	0.198054	1.308843	-0.617057	0.160918	1.097718	-0.572982	0.099018	0.833840	-0.528906	1.237798	6.089451	-3.922156	0.000000	0.000000	10.458407	1.261955	7.870059	21.587108	-11.457564	80.185844	48.309173	5.099081	-4.772935	22.417833	16.445478	-1.627595	67.614054	34.412032	41.590508	8.378379	-4.276803
0.120000	-3.283804	-3.347841	93.953777	0.273259	0.715968	0.823878	-4.769676	2.712969	-0.030361	0.707453	0.012347	12.445803	-14.629515	0.000000	-4.296005	-1.686159	19.497230	0.530656	0.009262	22.818835	-14.646233	0.000000	0.177584	0.526701	-0.730298	0.329791	0.700513	-0.775942	0.291752	1.280621	-0.775942	0.202961	1.280621	-0.639011	0.164904	1.074049	-0.593367	0.101471	0.815860	-0.547723	1.268463	5.958150	-4.061698	0.000000	0.000000	10.645905	1.369289	7.491313	21.644757	-11.424617	80.191059	48.349187	5.017057	-4.695754	22.268473	16.363432	-1.611492	66.792916	34.506550	41.657971	8.296227	-3.730907
0.140000	-3.341434	-3.381650	94.101536	0.273288	0.715768	0.824389	-4.755455	2.674303	-0.129285	0.673779	0.011760	12.449002	-14.722962	0.000000	-4.219891	-1.640618	19.792255	0.570986	0.009966	22.818739	-14.761034	0.000000	0.183974	0.515333	-0.749280	0.341658	0.685393	-0.796110	0.302251	1.252981	-0.796110	0.210264	1.252981	-0.655620	0.170838	1.050867	-0.608790	0.105123	0.798251	-0.561960	1.314107	5.829551	-4.167271	0.000000	0.000000	10.798103	1.513289	7.101633	21.807122	-11.397208	80.500223	48.378974	4.883648	-4.527951	22.077804	16.233966	-1.574976	65.897311	34.575772	41.865202	8.272704	-3.076130
0.160000	-3.401603	-3.397384	94.219738	0.273338	0.715572	0.824780	-4.749186	2.624491	-0.058787	0.640446	0.011178	12.526589	-14.898555	0.000000	-4.159684	-1.587210	19.981802	0.623037	0.010874	22.877608	-14.812254	0.000000	0.192015	0.504448	-0.762822	0.356590	0.670915	-0.810499	0.315461	1.226514	-0.810499	0.219454	1.226514	-0.667469	0.178305	1.028670	-0.619793	0.109717	0.781389	-0.572117	1.371542	5.706413	-4.242588	0.000000	0.000000	10.917890	1.684251	6.714613	22.045500	-11.374010	81.036866	48.399599	4.713000	-4.296944	21.863206	16.068328	-1.522761	64.965027	34.619209	42.194708	8.295860	-2.362581
0.180000	-3.462579	-3.396811	94.310105	0.273410	0.715386	0.825063	-4.750896	2.567061	0.141413	0.608502	0.010620	12.658455	-15.134596	0.000000	-4.114723	-1.528270	20.081145	0.685591	0.011966	22.979031	-14.813059	0.000000	0.201260	0.494289	-0.771592	0.373760	0.657404	-0.819817	0.330650	1.201813	-0.819817	0.230020	1.201813	-0.675143	0.186890	1.007953	-0.626919	0.115000	0.765653	-0.578694	1.437580	5.591492	-4.291364	0.000000	0.000000	11.008157	1.872470	6.343849	22.331188	-11.353698	81.724518	48.412126	4.519261	-4.030152	21.642062	15.877769	-1.459559	64.033856	34.636371	42.628995	8.353743	-1.640371
0.200000	-3.522627	-3.381700	94.374357	0.273501	0.715218	0.825249	-4.760608	2.505541	0.431600	0.578996	0.010105	12.824493	-15.409388	0.000000	-4.084344	-1.466128	20.105559	0.757428	0.013220	23.106599	-14.776613	0.000000	0.211264	0.485100	-0.776258	0.392338	0.645183	-0.824774	0.347085	1.179471	-0.824774	0.241453	1.179471	-0.679226	0.196179	0.989215	-0.630710	0.120716	0.751419	-0.582194	1.509035	5.487545	-4.317314	0.000000	0.000000	11.071794	2.068242	6.002934	22.635485	-11.334946	82.486708	48.417619	4.316575	-3.754994	21.431751	15.673539	-1.390086	63.141586	34.626770	43.150568	8.434403	-0.959608
0.220000	-3.576479	-3.360987	94.401433	0.273617	0.715099	0.825366	-4.772283	2.447844	0.674758	0.553889	0.009667	12.937026	-15.613608	0.000000	-4.056757	-1.402514	20.043555	0.852410	0.014877	23.204045	-14.707323	0.000000	0.220497	0.477864	-0.774287	0.409485	0.635560	-0.822680	0.362255	1.161879	-0.822680	0.252006	1.161879	-0.677501	0.204754	0.974461	-0.629108	0.125992	0.740212	-0.580715	1.574989	5.405697	-4.306352	0.000000	0.000000	11.124591	2.207338	5.732086	22.925810	-11.323247	83.216737	48.440640	4.127450	-3.557852	21.268748	15.524584	-1.328740	62.409146	34.605682	43.698781	8.436541	-0.505345
0.240000	-3.632191	-3.323905	94.409896	0.273751	0.715020	0.825405	-4.802406	2.389435	0.888850	0.536955	0.009372	13.000725	-15.812165	0.000000	-4.049571	-1.335607	19.974197	0.952780	0.016629	23.292793	-14.652149	0.000000	0.229080	0.471294	-0.771977	0.425425	0.626821	-0.820226	0.376356	1.145904	-0.820226	0.261816	1.145904	-0.675480	0.212724	0.961062	-0.627231	0.130897	0.730034	-0.578983	1.636298	5.331371	-4.293504	0.000000	0.000000	11.148965	2.353751	5.558760	23.069100	-11.301864	83.591644	48.448531	3.991442	-3.491151	21.229728	15.370496	-1.277362	61.826138	34.526409	44.403905	8.449326	-0.334732
0.260000	-3.688801	-3.274339	94.397704	0.273910	0.714986	0.825375	-4.845522	2.333130	1.030486	0.529709	0.009245	13.028197	-15.959532	0.000000	-4.057985	-1.264081	19.923671	1.063972	0.018570	23.330637	-14.680379	0.000000	0.237063	0.465313	-0.768352	0.440250	0.618867	-0.816374	0.389471	1.131363	-0.816374	0.270940	1.131363	-0.672308	0.220137	0.948867	-0.624286	0.135458	0.720770	-0.576264	1.693320	5.263717	-4.273341	0.000000	0.000000	11.153401	2.525106	5.476867	23.067925	-11.261065	83.628009	48.436267	3.934778	-3.540505	21.282753	15.224705	-1.235653	61.440551	34.399942	45.086391	8.452958	-0.431239
0.280000	-3.729130	-3.213413	94.348004	0.274109	0.714989	0.825276	-4.899242	2.294613	1.172472	0.530886	0.009266	13.004610	-16.116583	0.000000	-4.092648	-1.209606	19.832720	1.166465	0.020359	23.339203	-14.684658	0.000000	0.244176	0.462763	-0.763714	0.453459	0.615474	-0.811446	0.401156	1.125161	-0.811446	0.279068	1.125161	-0.668250	0.226742	0.943666	-0.620517	0.139522	0.716819	-0.572785	1.744123	5.234863	-4.247547	0.000000	0.000000	11.132499	2.651776	5.493059	22.987544	-11.214274	83.488497	48.418937	3.916308	-3.648903	21.397788	15.100180	-1.208558	61.242126	34.239431	45.828074	8.479494	-0.730226
0.300000	-3.764155	-3.143633	94.274220	0.274318	0.715039	0.825118	-4.966365	2.263072	1.299461	0.530692	0.009262	12.931652	-16.294873	0.000000	-4.150084	-1.159464	19.690761	1.260700	0.022003	23.298128	-14.663210	0.000000	0.249961	0.462460	-0.756643	0.464202	0.615072	-0.803934	0.410661	1.124426	-0.803934	0.285680	1.124426	-0.662063	0.232114	0.943049	-0.614773	0.142828	0.716351	-0.567483	1.785446	5.231444	-4.208224	0.000000	0.000000	11.093002	2.761029	5.620076	22.792237	-11.161821	83.078807	48.384530	3.952933	-3.826586	21.595654	14.982730	-1.191947	61.178412	34.072591	46.553359	8.498114	-1.202116
